<svg width="14" height="16" viewBox="0 0 14 16" fill="none" xmlns="http://www.w3.org/2000/svg">
<path d="M1.73679 13.6783C1.73679 14.0536 1.88587 14.4135 2.15123 14.6789C2.4166 14.9442 2.77651 15.0933 3.15179 15.0933H11.6418C12.0171 15.0933 12.377 14.9442 12.6423 14.6789C12.9077 14.4135 13.0568 14.0536 13.0568 13.6783V3.77333H1.73679V13.6783ZM9.75511 6.13166C9.75511 6.00657 9.8048 5.8866 9.89325 5.79814C9.98171 5.70969 10.1017 5.65999 10.2268 5.65999C10.3519 5.65999 10.4718 5.70969 10.5603 5.79814C10.6487 5.8866 10.6984 6.00657 10.6984 6.13166V12.735C10.6984 12.8601 10.6487 12.98 10.5603 13.0685C10.4718 13.157 10.3519 13.2066 10.2268 13.2066C10.1017 13.2066 9.98171 13.157 9.89325 13.0685C9.8048 12.98 9.75511 12.8601 9.75511 12.735V6.13166ZM6.92511 6.13166C6.92511 6.00657 6.97481 5.8866 7.06326 5.79814C7.15171 5.70969 7.27168 5.65999 7.39678 5.65999C7.52187 5.65999 7.64184 5.70969 7.7303 5.79814C7.81875 5.8866 7.86844 6.00657 7.86844 6.13166V12.735C7.86844 12.8601 7.81875 12.98 7.7303 13.0685C7.64184 13.157 7.52187 13.2066 7.39678 13.2066C7.27168 13.2066 7.15171 13.157 7.06326 13.0685C6.97481 12.98 6.92511 12.8601 6.92511 12.735V6.13166ZM4.09512 6.13166C4.09512 6.00657 4.14481 5.8866 4.23327 5.79814C4.32172 5.70969 4.44169 5.65999 4.56678 5.65999C4.69188 5.65999 4.81185 5.70969 4.9003 5.79814C4.98876 5.8866 5.03845 6.00657 5.03845 6.13166V12.735C5.03845 12.8601 4.98876 12.98 4.9003 13.0685C4.81185 13.157 4.69188 13.2066 4.56678 13.2066C4.44169 13.2066 4.32172 13.157 4.23327 13.0685C4.14481 12.98 4.09512 12.8601 4.09512 12.735V6.13166ZM13.5284 0.943337H9.99094L9.71384 0.392077C9.65514 0.274224 9.56472 0.175088 9.45275 0.105823C9.34078 0.0365576 9.2117 -8.92617e-05 9.08004 5.16849e-06H5.71057C5.57921 -0.000499825 5.45036 0.0360104 5.33878 0.105353C5.22721 0.174695 5.13743 0.274065 5.07972 0.392077L4.80262 0.943337H1.26512C1.14003 0.943337 1.02006 0.99303 0.931605 1.08148C0.84315 1.16994 0.793457 1.28991 0.793457 1.415L0.793457 2.35833C0.793457 2.48343 0.84315 2.6034 0.931605 2.69185C1.02006 2.78031 1.14003 2.83 1.26512 2.83H13.5284C13.6535 2.83 13.7735 2.78031 13.862 2.69185C13.9504 2.6034 14.0001 2.48343 14.0001 2.35833V1.415C14.0001 1.28991 13.9504 1.16994 13.862 1.08148C13.7735 0.99303 13.6535 0.943337 13.5284 0.943337Z" fill="black"/>
</svg>
