<svg width="46" height="62" viewBox="0 0 46 62" fill="none" xmlns="http://www.w3.org/2000/svg">
<path d="M40.25 7.6715H30.6667C30.6667 3.44019 27.2286 0 23 0C18.7714 0 15.3333 3.44019 15.3333 7.6715H5.75C2.57552 7.6715 0 10.2486 0 13.4251V55.6184C0 58.7948 2.57552 61.372 5.75 61.372H40.25C43.4245 61.372 46 58.7948 46 55.6184V13.4251C46 10.2486 43.4245 7.6715 40.25 7.6715ZM23 4.79469C24.5932 4.79469 25.875 6.07726 25.875 7.6715C25.875 9.26573 24.5932 10.5483 23 10.5483C21.4068 10.5483 20.125 9.26573 20.125 7.6715C20.125 6.07726 21.4068 4.79469 23 4.79469ZM37.5187 32.5799L20.3885 49.577C19.8255 50.1404 18.9151 50.1284 18.3521 49.5651L8.45729 39.5801C7.89427 39.0168 7.90625 38.1058 8.46927 37.5424L11.8714 34.1621C12.4344 33.5988 13.3448 33.6107 13.9078 34.1741L19.4182 39.736L32.1161 27.1259C32.6792 26.5626 33.5896 26.5745 34.1526 27.1379L37.5307 30.5421C38.0937 31.1175 38.0818 32.0165 37.5187 32.5799Z" fill="white"/>
</svg>
