<svg width="40" height="32" viewBox="0 0 40 32" fill="none" xmlns="http://www.w3.org/2000/svg">
<path d="M16.25 0C15.2554 0 14.3016 0.38901 13.5983 1.08145C12.8951 1.77389 12.5 2.71305 12.5 3.69231V4.92308H3.75C2.75544 4.92308 1.80161 5.31209 1.09835 6.00453C0.395088 6.69697 0 7.63612 0 8.61539L0 28.3077C0 29.287 0.395088 30.2261 1.09835 30.9186C1.80161 31.611 2.75544 32 3.75 32H36.25C37.2446 32 38.1984 31.611 38.9016 30.9186C39.6049 30.2261 40 29.287 40 28.3077V8.61539C40 7.63612 39.6049 6.69697 38.9016 6.00453C38.1984 5.31209 37.2446 4.92308 36.25 4.92308H27.5V3.69231C27.5 2.71305 27.1049 1.77389 26.4017 1.08145C25.6984 0.38901 24.7446 0 23.75 0H16.25ZM16.25 2.46154H23.75C24.0815 2.46154 24.3995 2.59121 24.6339 2.82202C24.8683 3.05284 25 3.36589 25 3.69231V4.92308H15V3.69231C15 3.36589 15.1317 3.05284 15.3661 2.82202C15.6005 2.59121 15.9185 2.46154 16.25 2.46154ZM20.965 19.4806L37.5 15.1409V28.3077C37.5 28.6341 37.3683 28.9472 37.1339 29.178C36.8995 29.4088 36.5815 29.5385 36.25 29.5385H3.75C3.41848 29.5385 3.10054 29.4088 2.86612 29.178C2.6317 28.9472 2.5 28.6341 2.5 28.3077V15.1385L19.035 19.4806C19.6673 19.6464 20.3327 19.6464 20.965 19.4806ZM3.75 7.38462H36.25C36.5815 7.38462 36.8995 7.51429 37.1339 7.7451C37.3683 7.97591 37.5 8.28896 37.5 8.61539V12.5932L20.3225 17.1028C20.1112 17.1583 19.8888 17.1583 19.6775 17.1028L2.5 12.5932V8.61539C2.5 8.28896 2.6317 7.97591 2.86612 7.7451C3.10054 7.51429 3.41848 7.38462 3.75 7.38462Z" fill="#5541D7"/>
</svg>
