<svg width="46" height="42" viewBox="0 0 46 42" fill="none" xmlns="http://www.w3.org/2000/svg">
<path d="M23 0C10.2889 0 2.3879e-10 10.734 2.3879e-10 24V28.5C-6.88004e-06 29.0571 0.148668 29.6033 0.429365 30.0772C0.710062 30.5511 1.11169 30.9341 1.58925 31.1833L2.88147 31.8575C3.06214 37.4909 7.49486 42 12.9375 42H15.0938C16.2846 42 17.25 40.9927 17.25 39.75V23.25C17.25 22.0073 16.2846 21 15.0938 21H12.9375C10.1216 21 7.57643 22.2074 5.75 24.1525V24C5.75 14.0748 13.4883 6 23 6C32.5117 6 40.25 14.0748 40.25 24V24.1525C38.4236 22.2074 35.8784 21 33.0625 21H30.9062C29.7154 21 28.75 22.0073 28.75 23.25V39.75C28.75 40.9927 29.7154 42 30.9062 42H33.0625C38.5051 42 42.9379 37.4908 43.1185 31.8575L44.4107 31.1833C44.8882 30.9342 45.2899 30.5512 45.5706 30.0772C45.8513 29.6033 46 29.0571 46 28.5V24C46 10.7363 35.7132 0 23 0Z" fill="white"/>
</svg>
