<svg width="46" height="55" viewBox="0 0 46 55" fill="none" xmlns="http://www.w3.org/2000/svg">
<path d="M40.25 6.875H30.6667C30.6667 3.08301 27.2286 0 23 0C18.7714 0 15.3333 3.08301 15.3333 6.875H5.75C2.57552 6.875 0 9.18457 0 12.0312V49.8438C0 52.6904 2.57552 55 5.75 55H40.25C43.4245 55 46 52.6904 46 49.8438V12.0312C46 9.18457 43.4245 6.875 40.25 6.875ZM11.5 45.5469C9.90677 45.5469 8.625 44.3975 8.625 42.9688C8.625 41.54 9.90677 40.3906 11.5 40.3906C13.0932 40.3906 14.375 41.54 14.375 42.9688C14.375 44.3975 13.0932 45.5469 11.5 45.5469ZM11.5 35.2344C9.90677 35.2344 8.625 34.085 8.625 32.6562C8.625 31.2275 9.90677 30.0781 11.5 30.0781C13.0932 30.0781 14.375 31.2275 14.375 32.6562C14.375 34.085 13.0932 35.2344 11.5 35.2344ZM11.5 24.9219C9.90677 24.9219 8.625 23.7725 8.625 22.3438C8.625 20.915 9.90677 19.7656 11.5 19.7656C13.0932 19.7656 14.375 20.915 14.375 22.3438C14.375 23.7725 13.0932 24.9219 11.5 24.9219ZM23 4.29688C24.5932 4.29688 25.875 5.44629 25.875 6.875C25.875 8.30371 24.5932 9.45312 23 9.45312C21.4068 9.45312 20.125 8.30371 20.125 6.875C20.125 5.44629 21.4068 4.29688 23 4.29688ZM38.3333 43.8281C38.3333 44.3008 37.9021 44.6875 37.375 44.6875H20.125C19.5979 44.6875 19.1667 44.3008 19.1667 43.8281V42.1094C19.1667 41.6367 19.5979 41.25 20.125 41.25H37.375C37.9021 41.25 38.3333 41.6367 38.3333 42.1094V43.8281ZM38.3333 33.5156C38.3333 33.9883 37.9021 34.375 37.375 34.375H20.125C19.5979 34.375 19.1667 33.9883 19.1667 33.5156V31.7969C19.1667 31.3242 19.5979 30.9375 20.125 30.9375H37.375C37.9021 30.9375 38.3333 31.3242 38.3333 31.7969V33.5156ZM38.3333 23.2031C38.3333 23.6758 37.9021 24.0625 37.375 24.0625H20.125C19.5979 24.0625 19.1667 23.6758 19.1667 23.2031V21.4844C19.1667 21.0117 19.5979 20.625 20.125 20.625H37.375C37.9021 20.625 38.3333 21.0117 38.3333 21.4844V23.2031Z" fill="white"/>
</svg>
